<?xml version="1.0" encoding="UTF-8"?>
<svg xmlns="http://www.w3.org/2000/svg" xmlns:xlink="http://www.w3.org/1999/xlink" width="24px" height="24px" viewBox="0 0 24 18" version="1.1">
<g id="surface1">
<path style=" stroke:none;fill-rule:nonzero;fill:rgb(34.509804%,39.607843%,94.901961%);fill-opacity:1;" d="M 20.308594 1.507812 C 18.734375 0.792969 17.074219 0.285156 15.371094 0 C 15.136719 0.414062 14.925781 0.839844 14.738281 1.277344 C 12.921875 1.003906 11.074219 1.003906 9.257812 1.277344 C 9.070312 0.839844 8.859375 0.414062 8.625 0 C 6.917969 0.289062 5.257812 0.796875 3.683594 1.511719 C 0.558594 6.097656 -0.289062 10.574219 0.132812 14.984375 C 1.964844 16.324219 4.011719 17.34375 6.191406 18 C 6.679688 17.34375 7.113281 16.652344 7.488281 15.925781 C 6.777344 15.664062 6.09375 15.339844 5.445312 14.957031 C 5.617188 14.832031 5.785156 14.707031 5.945312 14.582031 C 9.78125 16.371094 14.21875 16.371094 18.054688 14.582031 C 18.21875 14.714844 18.386719 14.84375 18.554688 14.957031 C 17.902344 15.339844 17.21875 15.664062 16.507812 15.925781 C 16.882812 16.652344 17.316406 17.347656 17.804688 18 C 19.984375 17.347656 22.035156 16.328125 23.867188 14.984375 C 24.363281 9.871094 23.019531 5.4375 20.308594 1.507812 Z M 8.023438 12.269531 C 6.84375 12.269531 5.867188 11.207031 5.867188 9.898438 C 5.867188 8.59375 6.808594 7.519531 8.019531 7.519531 C 9.230469 7.519531 10.199219 8.59375 10.175781 9.898438 C 10.15625 11.207031 9.226562 12.269531 8.023438 12.269531 Z M 15.976562 12.269531 C 14.792969 12.269531 13.824219 11.207031 13.824219 9.898438 C 13.824219 8.59375 14.765625 7.519531 15.976562 7.519531 C 17.1875 7.519531 18.148438 8.59375 18.128906 9.898438 C 18.109375 11.207031 17.179688 12.269531 15.976562 12.269531 Z M 15.976562 12.269531 "/>
</g>
</svg>
