<?xml version="1.0" encoding="UTF-8"?>
<svg xmlns="http://www.w3.org/2000/svg" xmlns:xlink="http://www.w3.org/1999/xlink" width="24px" height="24px" viewBox="0 0 24 24" version="1.1">
<defs>
<linearGradient id="linear0" gradientUnits="userSpaceOnUse" x1="0.5" y1="0" x2="0.5" y2="0.992583" gradientTransform="matrix(24,0,0,24,0,0)">
<stop offset="0" style="stop-color:rgb(16.470588%,67.058824%,93.333333%);stop-opacity:1;"/>
<stop offset="1" style="stop-color:rgb(13.333333%,61.960784%,85.098039%);stop-opacity:1;"/>
</linearGradient>
</defs>
<g id="surface1">
<path style=" stroke:none;fill-rule:evenodd;fill:url(#linear0);" d="M 24 12 C 24 18.628906 18.628906 24 12 24 C 5.371094 24 0 18.628906 0 12 C 0 5.371094 5.371094 0 12 0 C 18.628906 0 24 5.371094 24 12 Z M 24 12 "/>
<path style=" stroke:none;fill-rule:evenodd;fill:rgb(100%,100%,100%);fill-opacity:1;" d="M 5.433594 11.875 C 8.929688 10.347656 11.261719 9.34375 12.429688 8.859375 C 15.761719 7.472656 16.453125 7.230469 16.90625 7.222656 C 17.003906 7.222656 17.226562 7.246094 17.371094 7.363281 C 17.492188 7.460938 17.527344 7.59375 17.542969 7.6875 C 17.558594 7.78125 17.578125 7.996094 17.5625 8.160156 C 17.382812 10.058594 16.601562 14.664062 16.203125 16.789062 C 16.035156 17.6875 15.703125 17.988281 15.382812 18.019531 C 14.6875 18.082031 14.15625 17.558594 13.480469 17.117188 C 12.425781 16.421875 11.828125 15.992188 10.804688 15.316406 C 9.617188 14.535156 10.386719 14.105469 11.0625 13.40625 C 11.238281 13.222656 14.308594 10.429688 14.367188 10.175781 C 14.375 10.144531 14.382812 10.027344 14.3125 9.964844 C 14.242188 9.902344 14.140625 9.921875 14.0625 9.941406 C 13.957031 9.964844 12.269531 11.078125 9.003906 13.285156 C 8.523438 13.613281 8.089844 13.773438 7.703125 13.765625 C 7.273438 13.757812 6.449219 13.523438 5.835938 13.324219 C 5.085938 13.082031 4.488281 12.953125 4.539062 12.535156 C 4.566406 12.320312 4.863281 12.097656 5.433594 11.875 Z M 5.433594 11.875 "/>
</g>
</svg>
